<svg width="15" height="15" viewBox="0 0 15 15" fill="none" xmlns="http://www.w3.org/2000/svg">
<path d="M0.625 0.49527C0.279875 0.49527 0 0.746062 0 1.05532C0 1.36459 0.279875 1.61538 0.625 1.61538H1.25V11.9204C1.25 13.186 2.4 14.2166 3.8125 14.2166H11.1875C12.5999 14.2166 13.75 13.1861 13.75 11.9204V1.61538H14.375C14.7201 1.61538 15 1.36459 15 1.05532C15 0.746062 14.7201 0.49527 14.375 0.49527H13.125H1.875H0.625ZM12.5 1.61538V11.9204C12.5 12.57 11.9125 13.0965 11.1875 13.0965H3.8125C3.0875 13.0965 2.5 12.57 2.5 11.9204V1.61538H12.5Z" fill="white"/>
</svg>
