<svg width="30" height="30" viewBox="0 0 30 30" fill="none" xmlns="http://www.w3.org/2000/svg">
<path d="M15 0C12.0333 0 9.13319 0.879734 6.66645 2.52796C4.19972 4.17618 2.27713 6.51885 1.14181 9.25974C0.00649926 12.0006 -0.290551 15.0166 0.288228 17.9263C0.867006 20.8361 2.29562 23.5088 4.3934 25.6066C6.49119 27.7044 9.16394 29.133 12.0737 29.7118C14.9834 30.2905 17.9994 29.9935 20.7403 28.8582C23.4811 27.7229 25.8238 25.8003 27.472 23.3335C29.1203 20.8668 30 17.9667 30 15C29.9956 11.0231 28.4139 7.21032 25.6018 4.39822C22.7897 1.58612 18.9769 0.00436739 15 0ZM18.441 13.041L16.5015 11.1V22.485C16.5015 22.8828 16.3435 23.2643 16.0622 23.5457C15.7809 23.827 15.3993 23.985 15.0015 23.985C14.6037 23.985 14.2221 23.827 13.9408 23.5457C13.6595 23.2643 13.5015 22.8828 13.5015 22.485V11.1L11.5635 13.038C11.2822 13.3195 10.9007 13.4777 10.5028 13.4778C10.1049 13.4779 9.72322 13.32 9.44175 13.0387C9.16029 12.7575 9.00209 12.3759 9.00195 11.978C9.00181 11.5801 9.15974 11.1985 9.441 10.917L13.941 6.417C14.2223 6.13579 14.6038 5.97782 15.0015 5.97782C15.3993 5.97782 15.7807 6.13579 16.062 6.417L20.562 10.917C20.8352 11.1999 20.9864 11.5788 20.983 11.9721C20.9796 12.3654 20.8218 12.7416 20.5437 13.0197C20.2656 13.2978 19.8894 13.4556 19.4961 13.459C19.1028 13.4624 18.7239 13.3112 18.441 13.038V13.041Z" fill="#0C0440"/>
</svg>
