<svg width="26" height="23" viewBox="0 0 26 23" fill="none" xmlns="http://www.w3.org/2000/svg">
<path d="M18.8594 0C17.5028 0 16.259 0.429883 15.1627 1.27773C14.1117 2.09058 13.412 3.12588 13 3.87871C12.588 3.12583 11.8883 2.09058 10.8373 1.27773C9.74097 0.429883 8.49722 0 7.14062 0C3.35488 0 0.5 3.09653 0.5 7.20283C0.5 11.6391 4.06167 14.6743 9.45356 19.2691C10.3692 20.0495 11.407 20.9339 12.4857 21.8772C12.6279 22.0018 12.8105 22.0703 13 22.0703C13.1895 22.0703 13.3721 22.0018 13.5143 21.8773C14.5931 20.9338 15.6309 20.0494 16.547 19.2687C21.9383 14.6743 25.5 11.6391 25.5 7.20283C25.5 3.09653 22.6451 0 18.8594 0Z" fill="#A63747"/>
</svg>
