<svg width="248" height="81" viewBox="0 0 248 81" fill="none" xmlns="http://www.w3.org/2000/svg">
<rect x="20" width="8" height="81" rx="4" fill="white"/>
<rect x="160" width="8" height="81" rx="4" fill="white"/>
<rect x="80" width="8" height="81" rx="4" fill="white"/>
<rect x="220" width="8" height="81" rx="4" fill="white"/>
<rect x="40" y="15" width="8" height="51" rx="4" fill="white" fill-opacity="0.6"/>
<rect x="180" y="15" width="8" height="51" rx="4" fill="white" fill-opacity="0.6"/>
<rect x="100" y="15" width="8" height="51" rx="4" fill="white" fill-opacity="0.6"/>
<rect x="60" y="22" width="8" height="37" rx="4" fill="white" fill-opacity="0.3"/>
<rect x="200" y="22" width="8" height="37" rx="4" fill="white" fill-opacity="0.3"/>
<rect x="120" y="22" width="8" height="37" rx="4" fill="white" fill-opacity="0.3"/>
<rect y="11" width="8" height="60" rx="4" fill="white" fill-opacity="0.7"/>
<rect x="240" y="11" width="8" height="60" rx="4" fill="white" fill-opacity="0.7"/>
<rect x="140" y="11" width="8" height="60" rx="4" fill="white" fill-opacity="0.7"/>
</svg>
