<svg width="50" height="50" viewBox="0 0 50 50" fill="none" xmlns="http://www.w3.org/2000/svg">
<rect width="50" height="50" rx="5" fill="#665FD6" fill-opacity="0.6"/>
<path d="M34.951 32.1387C34.348 32.1387 33.7585 32.3105 33.2571 32.6326C32.7557 32.9546 32.3649 33.4123 32.1341 33.9478C31.9034 34.4833 31.843 35.0725 31.9606 35.641C32.0783 36.2095 32.3687 36.7316 32.7951 37.1415C33.2215 37.5513 33.7648 37.8305 34.3562 37.9435C34.9476 38.0566 35.5607 37.9986 36.1178 37.7768C36.675 37.555 37.1511 37.1793 37.4862 36.6974C37.8212 36.2155 38 35.6489 38 35.0693C38 34.6844 37.9212 34.3033 37.7679 33.9478C37.6147 33.5922 37.3901 33.2692 37.107 32.997C36.8239 32.7249 36.4877 32.509 36.1178 32.3617C35.7479 32.2145 35.3514 32.1387 34.951 32.1387ZM34.951 36.4369C34.6696 36.4369 34.3945 36.3567 34.1605 36.2064C33.9265 36.0561 33.7442 35.8425 33.6365 35.5926C33.5288 35.3427 33.5006 35.0677 33.5555 34.8025C33.6104 34.5372 33.7459 34.2935 33.9449 34.1022C34.1439 33.911 34.3974 33.7807 34.6734 33.7279C34.9495 33.6752 35.2355 33.7022 35.4955 33.8058C35.7555 33.9093 35.9777 34.0846 36.1341 34.3095C36.2904 34.5344 36.3739 34.7988 36.3739 35.0693C36.3739 35.432 36.224 35.7798 35.9571 36.0363C35.6903 36.2928 35.3284 36.4369 34.951 36.4369Z" fill="white"/>
<path d="M36.1706 30.5758H35.7641V29.9897C35.7619 28.9022 35.3115 27.8599 34.5115 27.0909C33.7114 26.3219 32.6269 25.889 31.4955 25.8869C30.3637 25.8879 29.2786 26.3205 28.4783 27.0897C27.6781 27.8589 27.228 28.9019 27.2269 29.9897V33.8972C27.2269 34.5708 26.9485 35.2168 26.453 35.6931C25.9574 36.1694 25.2853 36.437 24.5845 36.437C23.8836 36.437 23.2115 36.1694 22.716 35.6931C22.2204 35.2168 21.942 34.5708 21.942 33.8972V30.9666H22.7551C23.402 30.9666 24.0224 30.7196 24.4798 30.2799C24.9373 29.8402 25.1943 29.2439 25.1943 28.6221V28.2744C26.873 27.457 28.2175 26.1215 29.0122 24.4819C29.8069 22.8424 30.0057 20.9938 29.5768 19.2327C29.1478 17.4715 28.116 15.8999 26.6467 14.7698C25.1774 13.6396 23.3558 13.0165 21.4741 13.0003C19.5923 12.9841 17.7595 13.5758 16.2694 14.6805C14.7793 15.7852 13.7183 17.3388 13.2567 19.0923C12.795 20.8458 12.9594 22.6975 13.7234 24.3504C14.4875 26.0034 15.8069 27.3618 17.4702 28.2079V28.6221C17.4702 29.2439 17.7272 29.8402 18.1846 30.2799C18.642 30.7196 19.2624 30.9666 19.9094 30.9666H20.3159V33.8972C20.317 34.985 20.767 36.028 21.5673 36.7972C22.3676 37.5664 23.4527 37.999 24.5845 38C25.7159 37.9979 26.8004 37.565 27.6004 36.796C28.4005 36.027 28.8509 34.9847 28.853 33.8972V29.9897C28.853 29.3161 29.1314 28.6701 29.627 28.1938C30.1226 27.7175 30.7947 27.4499 31.4955 27.4499C32.1963 27.4499 32.8684 27.7175 33.364 28.1938C33.8596 28.6701 34.138 29.3161 34.138 29.9897V30.5758H33.7314V32.1388H36.1706V30.5758ZM14.6244 21.0729C14.6244 19.7839 15.0221 18.5237 15.7672 17.4519C16.5123 16.3801 17.5714 15.5447 18.8104 15.0514C20.0495 14.5581 21.4129 14.429 22.7283 14.6805C24.0437 14.932 25.2519 15.5528 26.2002 16.4643C27.1486 17.3758 27.7944 18.5371 28.056 19.8014C28.3177 21.0657 28.1834 22.3762 27.6702 23.5671C27.1569 24.7581 26.2878 25.776 25.1727 26.4921C24.0576 27.2083 22.7465 27.5906 21.4054 27.5906C19.6076 27.5885 17.8841 26.9011 16.6129 25.6793C15.3417 24.4575 14.6266 22.8009 14.6244 21.0729ZM19.1329 28.8448C20.5639 29.2427 22.0809 29.2562 23.5194 28.8839C23.4632 29.0357 23.3597 29.1671 23.2228 29.2601C23.086 29.3531 22.9227 29.4033 22.7551 29.4036H19.9094C19.7346 29.403 19.5648 29.3483 19.4249 29.2477C19.2851 29.1471 19.1827 29.0058 19.1329 28.8448Z" fill="white"/>
<path d="M20.8534 21.6475L21.9526 20.4955L25.6409 23.7472L24.5416 24.8991L20.8534 21.6475Z" fill="white"/>
</svg>
