<svg width="40" height="40" viewBox="0 0 40 40" fill="none" xmlns="http://www.w3.org/2000/svg">
<circle cx="20" cy="20" r="20" fill="white"/>
<path d="M28 20.5C28 20.6744 27.9267 20.8489 27.7803 20.982L20.2803 27.8002C19.9872 28.0666 19.5127 28.0666 19.2198 27.8002C18.9269 27.5338 18.9267 27.1023 19.2198 26.8361L26.1895 20.5L19.2198 14.1639C18.9267 13.8975 18.9267 13.4661 19.2198 13.1998C19.5128 12.9336 19.9874 12.9334 20.2803 13.1998L27.7803 20.018C27.9267 20.1511 28 20.3256 28 20.5ZM21.7803 20.018L14.2803 13.1998C13.9872 12.9334 13.5127 12.9334 13.2198 13.1998C12.9269 13.4662 12.9267 13.8977 13.2198 14.1639L20.1895 20.5L13.2198 26.8361C12.9267 27.1025 12.9267 27.5339 13.2198 27.8002C13.5129 28.0664 13.9874 28.0666 14.2803 27.8002L21.7803 20.982C21.9267 20.8489 22 20.6744 22 20.5C22 20.3256 21.9267 20.1511 21.7803 20.018Z" fill="#FD7300"/>
</svg>
