<svg width="15" height="17" viewBox="0 0 15 17" fill="none" xmlns="http://www.w3.org/2000/svg">
<path d="M9.68751 12.8563C10.0326 12.8563 10.3125 12.6055 10.3125 12.2962V6.69568C10.3125 6.38641 10.0326 6.13562 9.68751 6.13562C9.34238 6.13562 9.0625 6.38641 9.0625 6.69568V12.2962C9.0625 12.6055 9.34238 12.8563 9.68751 12.8563Z" fill="white"/>
<path d="M5.31251 12.8563C5.65765 12.8563 5.93753 12.6055 5.93753 12.2962V6.69568C5.93753 6.38641 5.65765 6.13562 5.31251 6.13562C4.96738 6.13562 4.6875 6.38641 4.6875 6.69568V12.2962C4.6875 12.6055 4.96738 12.8563 5.31251 12.8563Z" fill="white"/>
<path d="M10 1.93518C10.3452 1.93518 10.625 1.6844 10.625 1.37515C10.625 1.06591 10.3452 0.815125 10 0.815125H5C4.65488 0.815125 4.375 1.06591 4.375 1.37515C4.375 1.6844 4.65488 1.93518 5 1.93518H10Z" fill="white"/>
<path d="M0.625 2.49527C0.279875 2.49527 0 2.74606 0 3.05532C0 3.36459 0.279875 3.61538 0.625 3.61538H1.25V13.9204C1.25 15.186 2.4 16.2166 3.8125 16.2166H11.1875C12.5999 16.2166 13.75 15.1861 13.75 13.9204V3.61538H14.375C14.7201 3.61538 15 3.36459 15 3.05532C15 2.74606 14.7201 2.49527 14.375 2.49527H13.125H1.875H0.625ZM12.5 3.61538V13.9204C12.5 14.57 11.9125 15.0965 11.1875 15.0965H3.8125C3.0875 15.0965 2.5 14.57 2.5 13.9204V3.61538H12.5Z" fill="white"/>
</svg>
