<svg width="180" height="180" viewBox="0 0 180 180" fill="none" xmlns="http://www.w3.org/2000/svg">
<circle cx="90" cy="90" r="90" fill="#C4C4C4" fill-opacity="0.3"/>
<circle cx="90" cy="90" r="70" fill="#C4C4C4" fill-opacity="0.4"/>
<circle cx="90" cy="90" r="55" fill="#C4C4C4" fill-opacity="0.5"/>
<circle cx="90" cy="90" r="40" fill="#C4C4C4" fill-opacity="0.6"/>
<path d="M114.615 110.006L92.7379 66.7544C92.182 65.6566 91.1579 65 90 65C88.8421 65 87.8181 65.6566 87.2621 66.7544L65.3849 110.006C64.8549 111.061 64.8729 112.304 65.4349 113.335C66.0009 114.378 67.0069 115 68.1247 115H111.875C112.993 115 113.999 114.378 114.565 113.335C115.127 112.304 115.145 111.061 114.615 110.006ZM89.5061 82.437C89.674 82.4065 89.8401 82.3913 90.004 82.3913C91.444 82.3913 92.7139 83.5109 92.9579 85.087C93.0159 85.4456 93.0099 85.8109 92.9579 86.15L90.986 98.8826C90.9039 99.4087 90.48 99.7826 90.002 99.7826C89.948 99.7826 89.89 99.7782 89.836 99.7674C89.402 99.6891 89.0819 99.3239 89.014 98.8826L87.0421 86.15C86.7682 84.3913 87.8741 82.7283 89.5061 82.437ZM90 108.478C88.3461 108.478 87.0001 107.015 87.0001 105.217C87.0001 103.419 88.346 101.956 90 101.956C91.654 101.956 92.9999 103.42 92.9999 105.217C92.9999 107.015 91.6539 108.478 90 108.478Z" fill="#0C0440"/>
</svg>
